<svg xmlns="http://www.w3.org/2000/svg" fill="none" height="22" viewBox="0 0 181.7136993408203 52.81919860839844" style="height:22px;width:auto;display:block;"><g><path d="M52.016441258789065,10.5552L40.953640258789065,10.5552L40.953640258789065,13.734L53.93523825878906,13.734C54.08913825878906,13.7335,54.24174125878906,13.7634,54.38404125878906,13.822C54.52643925878906,13.8806,54.65583825878906,13.9667,54.76483925878906,14.0754C54.873939258789065,14.1841,54.96043825878906,14.3132,55.01943925878906,14.4554C55.07843825878906,14.5976,55.10884125878906,14.7501,55.10884125878906,14.904L55.10884125878906,19.476C55.10884125878906,19.629999,55.07843825878906,19.7824,55.01943925878906,19.924601C54.96043825878906,20.066799,54.873939258789065,20.1959,54.76483925878906,20.3046C54.65583825878906,20.4133,54.52643925878906,20.499399,54.38404125878906,20.558001C54.24174125878906,20.6166,54.08913825878906,20.6465,53.93523825878906,20.646L18.33123925878906,20.646C18.02093725878906,20.646,17.72334325878906,20.522699,17.503925258789064,20.303301C17.284507258789063,20.0839,17.161239258789063,19.786301,17.161239258789063,19.476L17.161239258789063,14.9184C17.161239258789063,14.6081,17.284507258789063,14.3105,17.503925258789064,14.0911C17.72334325878906,13.8717,18.02093725878906,13.7484,18.33123925878906,13.7484L33.01203925878906,13.7484L33.01203925878906,10.5696L19.623640258789063,10.5696C19.312999258789063,10.5687,19.015419258789063,10.4446,18.796100258789064,10.2246C18.576790258789064,10.0046,18.45364025878906,9.7066402,18.45364025878906,9.3960104L18.45364025878906,2.3868001C18.45364025878906,2.0764999,18.576910258789063,1.77891,18.796320258789063,1.55949C19.01573925878906,1.34007,19.313339258789064,1.2168,19.623640258789063,1.2168L25.20364025878906,1.2168C25.513939258789062,1.2168,25.811538258789064,1.34007,26.030948258789063,1.55949C26.25037025878906,1.77891,26.373640258789063,2.0764999,26.373640258789063,2.3868001L26.373640258789063,3.8627999L33.01203925878906,3.8627999L33.01203925878906,1.17001C33.01203925878906,1.01606,33.04243825878906,0.863617,33.10144025878906,0.72143102C33.160438258789064,0.57924497,33.24694025878906,0.45010599,33.35604125878906,0.341414C33.46504225878906,0.232722,33.594440258789064,0.146617,33.73683925878906,0.0880308C33.87913925878906,0.029444899,34.03173825878906,-0.00046815301,34.18563825878906,0.0000055390196L39.780037258789065,0.0000055390196C39.933937258789065,-0.00046815301,40.086540258789064,0.029444899,40.22884025878906,0.0880308C40.37123825878906,0.146617,40.50064125878906,0.232722,40.609642258789066,0.341414C40.718742258789064,0.45010599,40.80523725878906,0.57924497,40.864238258789065,0.72143102C40.923240258789065,0.863617,40.953640258789065,1.01606,40.953640258789065,1.17001L40.953640258789065,3.8627999L51.99844025878906,3.8627999C52.30873825878906,3.8627999,52.606338258789066,3.9860699,52.825741258789066,4.2054901C53.045139258789064,4.4249101,53.16843825878906,4.7224998,53.16843825878906,5.0328002L53.16843825878906,9.3960104C53.164741258789064,9.7010603,53.04243825878906,9.9926796,52.82733925878906,10.2091C52.61233925878906,10.4255,52.321438258789065,10.5496,52.016441258789065,10.5552ZM74.79362525878906,0L80.40612825878907,0C80.71672025878907,0.00095286901,81.01432825878906,0.12502,81.23362725878906,0.345009C81.45292625878906,0.56499898,81.57612625878906,0.86296499,81.57612625878906,1.1736L81.57612625878906,8.8992004L84.17522425878906,8.8992004C84.48532125878906,8.9001503,84.78232525878906,9.0237198,85.00152625878906,9.2429304C85.22072625878906,9.4621401,85.34432225878906,9.7591896,85.34522225878906,10.0692L85.34522225878906,15.678C85.34432225878906,15.988,85.22072625878906,16.285101,85.00152625878906,16.504299C84.78232525878906,16.723499,84.48532125878906,16.847,84.17522425878906,16.848L81.57612625878906,16.848L81.57612625878906,26.261999L83.69282525878906,25.308001C83.87222325878906,25.2278,84.06882525878906,25.194,84.26472425878906,25.2096C84.46052525878906,25.2251,84.64932225878906,25.2896,84.81372025878906,25.3971C84.97822525878907,25.504601,85.11302225878906,25.6516,85.20592525878907,25.8248C85.29882825878906,25.9979,85.34672525878906,26.1915,85.34522225878906,26.388L85.34522225878906,32.616001C85.34772525878907,32.8438,85.28352325878906,33.067299,85.16082725878907,33.259102C85.03802525878906,33.451,84.86192325878906,33.602798,84.65402225878906,33.695999L81.57612625878906,35.085602L81.57612625878906,51.645599C81.57612625878906,51.9562,81.45292625878906,52.2542,81.23362725878906,52.474201C81.01432825878906,52.694199,80.71672025878907,52.818199,80.40612825878907,52.819199L74.79722625878907,52.819199C74.48662525878906,52.818199,74.18902625878906,52.694199,73.96972625878907,52.474201C73.75042725878906,52.2542,73.62722825878906,51.9562,73.62722825878906,51.645599L73.62722825878906,38.6856L64.91166725878907,42.613201C64.73237625878906,42.694401,64.53550725878907,42.729,64.33927125878907,42.713902C64.14305125878906,42.6987,63.953823258789065,42.634399,63.789085258789065,42.526699C63.62434025878906,42.418999,63.489410258789064,42.2715,63.39680125878906,42.0979C63.304195258789065,41.924198,63.256901258789064,41.73,63.25927725878906,41.533199L63.25927725878906,35.279999C63.25731625878906,35.052299,63.32160225878906,34.828999,63.444328258789064,34.637299C63.56705825878906,34.445499,63.742916258789066,34.293598,63.950474258789065,34.200001L73.62722825878906,29.847601L73.62722825878906,16.848L70.35846725878906,16.848C70.13166825878906,18.489599,69.86527225878906,20.113199,69.55927325878906,21.672001C69.50514225878906,21.937201,69.36074825878906,22.1754,69.15069625878907,22.3461C68.94063525878906,22.516701,68.67791725878907,22.609301,68.40727225878906,22.608L63.93965525878906,22.608C63.766247258789065,22.608999,63.59481825878906,22.5711,63.43791225878906,22.497299C63.28101325878906,22.423401,63.14262725878906,22.315399,63.032871258789065,22.1812C62.92311525878906,22.0469,62.84476425878906,21.889799,62.80358525878906,21.7213C62.762405258789066,21.5529,62.75942625878906,21.377399,62.79486125878906,21.2076C63.92707425878906,15.4675,64.56064625878906,9.6401396,64.68846125878906,3.7908001C64.69414525878906,3.48491,64.82013725878906,3.1935899,65.03914625878906,2.97997C65.25815625878906,2.76635,65.55253625878906,2.64765,65.85846725878906,2.6496L70.24686425878906,2.6496C70.40217625878907,2.6490901,70.55603825878906,2.67961,70.69939425878906,2.7393601C70.84275825878906,2.7991099,70.97273225878907,2.8868899,71.08171125878906,2.99754C71.19069625878906,3.1082001,71.27647425878907,3.2395101,71.33402225878906,3.38376C71.39158625878906,3.5280199,71.41974625878906,3.6823101,71.41686225878907,3.8376C71.39166225878907,5.3676,71.31606325878906,7.0991998,71.19366425878906,8.8992004L73.62362625878906,8.8992004L73.62362625878906,1.1736C73.62362625878906,0.86296499,73.74682625878906,0.56499898,73.96612525878906,0.345009C74.18542525878907,0.12502,74.48302425878906,0.00095286901,74.79362525878906,0ZM101.13122525878906,1.2636C101.06902525878907,2.12275,100.94872525878907,2.9767001,100.77122525878906,3.8196001L117.16561525878906,3.8196001C117.47592525878906,3.8196001,117.77352525878906,3.9428699,117.99291525878907,4.1622901C118.21232525878906,4.3817,118.33562525878907,4.6792998,118.33562525878907,4.9896002L118.33562525878907,51.282001C118.33562525878907,51.5923,118.21232525878906,51.8899,117.99291525878907,52.109299C117.77352525878906,52.328701,117.47592525878906,52.452,117.16561525878906,52.452L103.69082525878906,52.452C103.38052525878906,52.452,103.08292525878906,52.328701,102.86352525878907,52.109299C102.64411525878906,51.8899,102.52082525878906,51.5923,102.52082525878906,51.282001L102.52082525878906,45.673199C102.52032525878906,45.519402,102.55032525878906,45.3671,102.60892525878906,45.224899C102.66752525878906,45.082699,102.75372525878906,44.953602,102.86242525878906,44.844799C102.97112525878906,44.736099,103.10032525878906,44.649899,103.24252525878906,44.591301C103.38471525878906,44.5327,103.53702525878906,44.502701,103.69082525878906,44.503201L110.38682525878906,44.503201L110.38682525878906,37.454399L89.73361225878907,46.947601C89.55540425878907,47.029701,89.35940525878907,47.065701,89.16364325878907,47.0522C88.96789525878906,47.0387,88.77866325878907,46.9762,88.61338825878906,46.870499C88.44810525878906,46.764702,88.31208825878906,46.619099,88.21783425878907,46.446999C88.12358125878906,46.274899,88.07412725878906,46.081799,88.07402025878906,45.885601L88.07402025878906,39.837601C88.07112925878906,39.611099,88.13381925878906,39.388599,88.25454725878906,39.196999C88.37528225878906,39.005402,88.54889725878907,38.852798,88.75443225878907,38.757599L110.38682525878906,28.836L110.38682525878906,21.985201L89.73361225878907,31.482C89.55401625878906,31.5648,89.35636125878906,31.6007,89.15912625878906,31.5863C88.96188325878906,31.572001,88.77147625878906,31.5079,88.60572025878906,31.400101C88.43996425878906,31.2922,88.30426825878907,31.1441,88.21128825878907,30.9695C88.11830125878906,30.795,88.07107525878907,30.599701,88.07402025878906,30.402L88.07402025878906,24.354C88.07112925878906,24.127501,88.13381925878906,23.905001,88.25454725878906,23.7134C88.37528225878906,23.521799,88.54889725878907,23.3692,88.75443225878907,23.274L110.38682525878906,13.356L110.38682525878906,11.7684L96.93361625878906,11.7684C94.87856325878906,14.2355,92.21757525878907,16.126101,89.21161625878906,17.254801C89.03544625878907,17.321199,88.84586325878907,17.344299,88.65889025878906,17.3221C88.47192425878906,17.2999,88.29305225878906,17.233,88.13736725878907,17.1271C87.98168925878906,17.0212,87.85377525878906,16.879299,87.76442725878906,16.7136C87.67507925878907,16.547899,87.62693025878906,16.3631,87.62402325878907,16.174801L87.62402325878907,9.9684C87.62673225878906,9.7626696,87.68251025878907,9.5611296,87.78594225878906,9.3832798C87.88937425878906,9.20543,88.03696425878907,9.0572901,88.21443225878906,8.9532003C89.59638225878906,8.1164103,90.76446525878906,6.9692798,91.62614425878907,5.6027098C92.48783125878906,4.2361398,93.01943225878907,2.68767,93.17882525878906,1.08C93.20225525878907,0.78709602,93.33470125878907,0.51363701,93.55000325878906,0.31366801C93.76530425878906,0.113699,94.04778325878907,0.00176846,94.34161425878906,0L99.95762625878906,0C100.11942525878906,0.000058436799,100.27952525878906,0.033485599,100.42792525878906,0.098192997C100.57622525878907,0.1629,100.70962525878906,0.257498,100.81972525878906,0.37607801C100.92992525878907,0.49465901,101.01441525878906,0.63467401,101.06792525878906,0.78737903C101.12152525878906,0.94008499,101.14312525878906,1.1022,101.13122525878906,1.2636ZM133.23606525878907,2.3688965L174.53526525878905,2.3688965C175.18147525878905,2.3688965,175.70527525878907,2.8927236,175.70527525878907,3.5388966L175.70527525878907,9.532896C175.70527525878907,10.179067,175.18147525878905,10.702896,174.53526525878905,10.702896L133.23606525878907,10.702896C132.58990525878906,10.702896,132.06607525878906,10.179067,132.06607525878906,9.532896L132.06607525878906,3.5388966C132.06607525878906,2.8927236,132.58990525878906,2.3688965,133.23606525878907,2.3688965ZM3.9097003587890624,2.7612305L13.280500258789063,2.7612305C13.926700258789063,2.7612305,14.450500258789063,3.2850575,14.450500258789063,3.9312305L14.450500258789063,9.5112305C14.450500258789063,10.1574,13.926700258789063,10.681231,13.280500258789063,10.681231L3.9097003587890624,10.681231C3.2635273587890623,10.681231,2.7397003587890625,10.1574,2.7397003587890625,9.5112305L2.7397003587890625,3.9312305C2.7397003587890625,3.2850575,3.2635273587890623,2.7612305,3.9097003587890624,2.7612305ZM14.673600258789062,41.151573L14.673600258789062,17.639971C14.672700258789062,17.32996,14.549100258789062,17.032917,14.329900258789063,16.813705C14.110699258789062,16.594494,13.813599258789063,16.470921,13.503600258789062,16.469971L1.1735999587890624,16.469971C0.8629680287890625,16.469969,0.5650039887890626,16.593122,0.3450149887890625,16.812437C0.1250250087890625,17.03175,0.0009528690090625,17.329336,6.249999975026233e-14,17.639971L6.249999975026233e-14,22.827572C6.249999975026233e-14,23.13883,0.1236479987890625,23.43734,0.3437399887890625,23.657431C0.5638329987890625,23.877522,0.8623449787890625,24.001171,1.1735999587890624,24.001171L6.753600158789062,24.001171L6.753600158789062,40.561172L0.6336039887890625,43.963173C0.4499160087890625,44.064072,0.2968089887890625,44.21257,0.1903819987890625,44.393173C0.0839549007890625,44.573669,0.0281416997890625,44.779572,0.0288061997890625,44.98917L0.0288061997890625,51.36837C0.0288117007890625,51.57217,0.0820420977890625,51.772472,0.1832409987890625,51.949272C0.2844400087890625,52.126171,0.4300970087890625,52.273571,0.6057749987890625,52.376869C0.7814530087890625,52.480171,0.9810600287890625,52.53577,1.1848399587890626,52.538269C1.3886200587890625,52.540672,1.5895099587890624,52.489872,1.7676000587890626,52.39077L10.227600258789062,47.71077L16.772400258789062,52.27557C16.969999258789063,52.41317,17.204799258789063,52.48727,17.445600258789064,52.487972L53.93519925878906,52.487972C54.24649825878906,52.487972,54.544998258789064,52.364269,54.76509825878906,52.144272C54.98519925878906,51.924171,55.10879925878906,51.625671,55.10879925878906,51.314369L55.10879925878906,45.723572C55.10879925878906,45.41227,54.98519925878906,45.11377,54.76509825878906,44.893669C54.544998258789064,44.673569,54.24649825878906,44.549973,53.93519925878906,44.549973L19.53720125878906,44.549973L14.673600258789062,41.151573ZM152.65811525878905,27.755932L180.54371525878906,27.755932C180.85430525878905,27.754982,181.15190525878907,27.630913,181.37120525878908,27.410923C181.59049525878908,27.190933,181.71369525878907,26.892973,181.71369525878907,26.582333L181.71369525878907,20.581133C181.71270525878907,20.271122,181.58921525878907,19.974079,181.36990525878906,19.754868C181.15071525878906,19.535656,180.85371525878907,19.412083,180.54371525878906,19.411133L127.22770525878906,19.411133C126.91769525878907,19.412083,126.62063525878906,19.535656,126.40142525878906,19.754868C126.18221525878906,19.974079,126.05865525878906,20.271122,126.05770525878906,20.581133L126.05770525878906,26.571533C126.05770525878906,26.882172,126.18086525878907,27.180134,126.40017525878906,27.400124C126.61949525878906,27.620113,126.91707525878907,27.744183,127.22770525878906,27.745132L142.25050525878908,27.745132L131.26689525878905,43.401535C131.12782525878907,43.598434,131.05360525878908,43.833733,131.05450525878905,44.074734L131.05450525878905,50.965134C131.05450525878905,51.275433,131.17776525878907,51.573032,131.39717525878908,51.792435C131.61659525878906,52.011833,131.91421525878906,52.135132,132.22450525878907,52.135132L175.70530525878905,52.135132C176.01591525878905,52.135132,176.31390525878905,52.011932,176.53390525878908,51.792633C176.75390525878908,51.573334,176.87791525878907,51.275734,176.87890525878908,50.965134L176.87890525878908,44.074734C176.88261525878906,43.815434,176.80030525878905,43.562332,176.64491525878907,43.354733L170.14331525878907,34.667931C170.03390525878908,34.521935,169.89210525878906,34.403233,169.72911525878905,34.321434C169.56600525878906,34.239532,169.38610525878906,34.196732,169.20370525878906,34.196335L161.49250525878907,34.196335C161.27551525878906,34.197033,161.06291525878908,34.257832,160.87831525878906,34.372032C160.69380525878907,34.486332,160.54450525878906,34.649532,160.44720525878907,34.843433C160.34980525878908,35.037434,160.30810525878906,35.254631,160.32681525878905,35.470833C160.34550525878907,35.687134,160.42370525878906,35.893932,160.55290525878905,36.068333L166.31291525878908,43.783134L141.39370525878905,43.783134L152.65811525878905,27.755932ZM19.65966825878906,40.309162L19.65966825878906,24.775162C19.65966825878906,24.463902,19.783315258789063,24.16539,20.00340825878906,23.945297C20.223501258789064,23.725204,20.52200125878906,23.601562,20.83325725878906,23.601562L51.631267258789066,23.601562C51.942569258789064,23.601562,52.241070258789065,23.725204,52.46116625878906,23.945297C52.68126725878906,24.16539,52.80486725878906,24.463902,52.80486725878906,24.775162L52.80486725878906,40.309162C52.80486725878906,40.463062,52.77446725878906,40.615562,52.715469258789064,40.757763C52.656467258789064,40.899963,52.569969258789065,41.02906,52.46086925878906,41.137764C52.35186725878906,41.24646,52.22246925878906,41.332565,52.08006625878906,41.391163C51.937767258789066,41.44976,51.78516725878906,41.47966,51.631267258789066,41.479164L20.83325725878906,41.479164C20.679308258789064,41.47966,20.52679225878906,41.44976,20.384424258789064,41.391163C20.24205825878906,41.332565,20.112653258789063,41.24646,20.003628258789064,41.137764C19.894602258789064,41.02906,19.808098258789062,40.899963,19.749075258789063,40.757763C19.690052258789063,40.615562,19.65966825878906,40.463062,19.65966825878906,40.309162ZM27.579668258789063,34.340363L44.88486825878906,34.340363L44.88486825878906,30.740362L27.579668258789063,30.740362L27.579668258789063,34.340363Z" fill-rule="evenodd" fill="currentColor"></path></g></svg>