<svg xmlns="http://www.w3.org/2000/svg" width="32" height="32" viewBox="0 0 32 32" fill="none"><path d="M27.356405,6.5566244Q27.640217,6.7204833,27.900215,6.9199853Q28.16021,7.1194868,28.391941,7.3512182Q28.623672,7.5829496,28.823174,7.8429451Q29.022675,8.1029396,29.186533,8.3867512Q29.350391,8.6705627,29.475803,8.9733343Q29.601215,9.2761059,29.686035,9.5926561Q29.770855,9.9092064,29.813629,10.23412Q29.856407,10.559034,29.856405,10.886751L29.856405,21.113249Q29.856407,21.440968,29.813631,21.765881Q29.770855,22.090794,29.686037,22.407345Q29.601215,22.723896,29.475803,23.026669Q29.350391,23.329437,29.186531,23.613249Q29.022675,23.89706,28.823174,24.157059Q28.623672,24.417053,28.391941,24.648785Q28.16021,24.880516,27.900215,25.080017Q27.640217,25.279518,27.356405,25.443377L18.5,30.556623Q18.216188,30.720484,17.913418,30.845898Q17.610645,30.97131,17.294096,31.056129Q16.977547,31.140947,16.652632,31.183723Q16.327717,31.226498,16,31.226498Q15.672283,31.226498,15.347369,31.183723Q15.022456,31.140945,14.705906,31.056128Q14.389355,30.97131,14.086583,30.845898Q13.783812,30.720484,13.5,30.556623L4.6435938,25.443375Q4.3597822,25.279518,4.0997868,25.080017Q3.8397913,24.880516,3.6080601,24.648783Q3.3763289,24.417053,3.1768272,24.157059Q2.9773254,23.89706,2.8134668,23.613249Q2.6496081,23.329437,2.5241961,23.026669Q2.3987842,22.723896,2.3139648,22.407347Q2.2291453,22.090796,2.1863694,21.765881Q2.1435938,21.440968,2.1435938,21.113249L2.1435933,10.886751Q2.1435933,10.559034,2.1863689,10.23412Q2.2291448,9.9092064,2.3139644,9.5926561Q2.3987837,9.2761059,2.5241957,8.9733343Q2.6496074,8.6705627,2.8134661,8.3867512Q2.977325,8.1029396,3.1768267,7.8429446Q3.3763285,7.5829496,3.6080596,7.3512182Q3.8397908,7.1194868,4.0997868,6.9199853Q4.3597822,6.7204833,4.6435933,6.5566244L13.5,1.4433756Q13.783812,1.2795169,14.086583,1.1541051Q14.389355,1.0286931,14.705906,0.94387358Q15.022456,0.85905409,15.34737,0.8162784Q15.672283,0.77350271,16,0.77350271Q16.327717,0.77350277,16.652632,0.81627846Q16.977547,0.85905421,17.294096,0.9438737Q17.610645,1.0286932,17.913418,1.1541052Q18.216188,1.2795172,18.5,1.4433758L27.356405,6.5566244Z" fill="#FFFFFF"/><path d="M16,8L22.928203,12L22.928203,20L16,24L9.071797,20L9.071797,12L16,8Z" fill="#8501FF"/><path d="M15.999958,24.000038L15.999958,8.000038L22.928161,12.000038L22.928161,20.000038L15.999958,24.000038Z" fill="#AF59FF"/><path d="M15.99994,16L22.928144,12L15.99994,8L9.071738,12L15.99994,16Z" fill="#CE99FF"/></svg>
